<svg xmlns="http://www.w3.org/2000/svg" viewBox="0 0 900 460" font-family="Inter, Segoe UI, system-ui, sans-serif">
<rect width="900" height="460" fill="#0A0502"/>
<text x="70" y="40" fill="#FF8012" font-size="13" font-family="ui-monospace, Consolas, monospace" letter-spacing="2">&gt; LIFT query → oracolo TM // una lingua in NP^A \ P^A</text>
<text x="70" y="68" fill="#FCF2E6" font-size="22" font-weight="700">Le query lasciano vivo un nucleo — e la macchina viene ingannata</text>
<line x1="70" y1="390" x2="870" y2="390" stroke="#876244"/>
<line x1="70" y1="100" x2="70" y2="390" stroke="#876244"/>
<line x1="70" y1="100" x2="870" y2="100" stroke="#FF8012" stroke-dasharray="6 5"/>
<text x="870" y="94" fill="#FF8012" font-size="12" text-anchor="end">soglia κ = 2</text>
<rect x="110" y="390" width="80" height="1" fill="#4AF626" opacity="0.85"/>
<text x="150" y="408" fill="#876244" font-size="10" text-anchor="middle">const_accept</text>
<text x="150" y="384" fill="#FCF2E6" font-size="11" text-anchor="middle">0</text>
<rect x="270" y="390" width="80" height="1" fill="#4AF626" opacity="0.85"/>
<text x="310" y="408" fill="#876244" font-size="10" text-anchor="middle">const_reject</text>
<text x="310" y="384" fill="#FCF2E6" font-size="11" text-anchor="middle">0</text>
<rect x="430" y="245" width="80" height="145" fill="#4AF626" opacity="0.85"/>
<text x="470" y="408" fill="#876244" font-size="10" text-anchor="middle">cube_scan_1</text>
<text x="470" y="239" fill="#FCF2E6" font-size="11" text-anchor="middle">1</text>
<rect x="590" y="100" width="80" height="290" fill="#4AF626" opacity="0.85"/>
<text x="630" y="408" fill="#876244" font-size="10" text-anchor="middle">cube_scan_2</text>
<text x="630" y="94" fill="#FCF2E6" font-size="11" text-anchor="middle">2</text>
<rect x="750" y="100" width="80" height="290" fill="#4AF626" opacity="0.85"/>
<text x="790" y="408" fill="#876244" font-size="10" text-anchor="middle">field_probe_2</text>
<text x="790" y="94" fill="#FCF2E6" font-size="11" text-anchor="middle">2</text>
<text x="20" y="245" fill="#876244" font-size="12" text-anchor="middle" transform="rotate(-90 20 245)">query algebriche fatte</text>
<rect x="70" y="440" width="12" height="12" fill="#4AF626"/>
<text x="88" y="450" fill="#FCF2E6" font-size="12">diagonalizzata (sbaglia su 1ⁿ)</text>
</svg>