<svg xmlns="http://www.w3.org/2000/svg" viewBox="0 0 900 500" font-family="Inter, Segoe UI, system-ui, sans-serif">
<rect width="900" height="500" fill="#0A0502"/>
<text x="70" y="40" fill="#FF8012" font-size="13" font-family="ui-monospace, Consolas, monospace" letter-spacing="2">&gt; CIRCUIT COMPLEXITY // spettro di Shannon (n=3)</text>
<text x="70" y="68" fill="#FCF2E6" font-size="22" font-weight="700">Quante funzioni hanno ciascuna complessità di formula</text>
<line x1="70" y1="436" x2="870" y2="436" stroke="#876244"/>
<line x1="70" y1="96" x2="70" y2="436" stroke="#876244"/>
<rect x="87" y="410" width="66" height="26" fill="#4AF626" opacity="0.88"/>
<text x="120" y="402" fill="#FCF2E6" font-size="12" font-weight="600" text-anchor="middle">6</text>
<text x="120" y="458" fill="#876244" font-size="12" text-anchor="middle">0</text>
<rect x="187" y="326" width="66" height="110" fill="#4AF626" opacity="0.88"/>
<text x="220" y="318" fill="#FCF2E6" font-size="12" font-weight="600" text-anchor="middle">26</text>
<text x="220" y="458" fill="#876244" font-size="12" text-anchor="middle">1</text>
<rect x="287" y="164" width="66" height="272" fill="#FF8012" opacity="0.88"/>
<text x="320" y="156" fill="#FCF2E6" font-size="12" font-weight="600" text-anchor="middle">64</text>
<text x="320" y="458" fill="#876244" font-size="12" text-anchor="middle">2</text>
<rect x="387" y="308" width="66" height="128" fill="#FF8012" opacity="0.88"/>
<text x="420" y="300" fill="#FCF2E6" font-size="12" font-weight="600" text-anchor="middle">30</text>
<text x="420" y="458" fill="#876244" font-size="12" text-anchor="middle">3</text>
<rect x="487" y="96" width="66" height="340" fill="#FF8012" opacity="0.88"/>
<text x="520" y="88" fill="#FCF2E6" font-size="12" font-weight="600" text-anchor="middle">80</text>
<text x="520" y="458" fill="#876244" font-size="12" text-anchor="middle">4</text>
<rect x="587" y="300" width="66" height="136" fill="#FF8012" opacity="0.88"/>
<text x="620" y="292" fill="#FCF2E6" font-size="12" font-weight="600" text-anchor="middle">32</text>
<text x="620" y="458" fill="#876244" font-size="12" text-anchor="middle">5</text>
<rect x="687" y="368" width="66" height="68" fill="#FF8012" opacity="0.88"/>
<text x="720" y="360" fill="#FCF2E6" font-size="12" font-weight="600" text-anchor="middle">16</text>
<text x="720" y="458" fill="#876244" font-size="12" text-anchor="middle">7</text>
<rect x="787" y="428" width="66" height="8" fill="#D73434" opacity="0.88"/>
<text x="820" y="420" fill="#FCF2E6" font-size="12" font-weight="600" text-anchor="middle">2</text>
<text x="820" y="458" fill="#876244" font-size="12" text-anchor="middle">9</text>
<text x="470" y="478" fill="#876244" font-size="12" text-anchor="middle">dimensione di formula (gate ∧/∨)</text>
<text x="20" y="266" fill="#876244" font-size="12" text-anchor="middle" transform="rotate(-90 20 266)">numero di funzioni</text>
</svg>